<svg xmlns="http://www.w3.org/2000/svg" xml:space="preserve" width="50" height="50" style="shape-rendering:geometricPrecision;text-rendering:geometricPrecision;image-rendering:optimizeQuality;fill-rule:evenodd;clip-rule:evenodd" viewBox="0 0 6.827 6.827"><defs><style>.fil2{fill:#fffffe;fill-rule:nonzero}</style></defs><g id="Layer_x0020_1"><rect width="6.827" height="6.827" rx=".853" ry=".853" style="fill:#7e57c2"/><g id="_215561864"><path id="_215562296" d="M1.604.918h4.453v4.548a.232.232 0 0 0-.022-.023l-.407-.39a.234.234 0 0 0-.115-.06L5.302 4.8h.235v-.213h-.293c.06-.12.096-.25.107-.385h.186V3.99H5.35a1.077 1.077 0 0 0-.141-.427h.33V3.35h-.494a1.078 1.078 0 0 0-1.538 0H2.018v.213h1.326c-.076.13-.125.276-.141.427H2.017v.213H3.2c.012.135.049.265.108.385h-1.29V4.8h1.429a1.086 1.086 0 0 0 .859.388c.219-.006.43-.078.606-.207l.33.302a.233.233 0 0 0 .064.108l.407.39a.232.232 0 0 0 .117.06.467.467 0 0 1-.243.068H1.24a.47.47 0 0 1-.47-.47v-3.69a.107.107 0 0 1 .213 0v3.69a.256.256 0 0 0 .258.257.256.256 0 0 0 .257-.257V.918h.106zm.52.511h1.6v1.493H2.017V1.43h.107zm1.665 3.158h.973a.678.678 0 0 0 .19-.385H3.598a.68.68 0 0 0 .19.385zm.4-3.113h.116v.365a.374.374 0 0 1-.012.11.155.155 0 0 1-.061.08.203.203 0 0 1-.117.03c-.057 0-.101-.015-.132-.047-.03-.032-.046-.078-.046-.14l.11-.013a.155.155 0 0 0 .014.07c.013.021.032.031.057.031.026 0 .045-.007.055-.022.011-.015.016-.045.016-.092v-.372zm.217.292c0-.06.008-.108.026-.148a.273.273 0 0 1 .053-.079.226.226 0 0 1 .075-.052.314.314 0 0 1 .124-.023.27.27 0 0 1 .203.08c.051.052.077.125.077.219a.302.302 0 0 1-.076.218.268.268 0 0 1-.202.079.271.271 0 0 1-.205-.079.297.297 0 0 1-.075-.215zm.12-.004c0 .065.014.114.044.148.03.034.069.05.115.05a.146.146 0 0 0 .114-.05c.03-.033.045-.083.045-.15 0-.066-.015-.115-.044-.148a.147.147 0 0 0-.115-.048.148.148 0 0 0-.116.05c-.03.032-.044.081-.044.148zm.529-.288h.23c.046 0 .08.002.102.006a.147.147 0 0 1 .104.072.13.13 0 0 1 .018.067.135.135 0 0 1-.081.125.139.139 0 0 1 .11.139.171.171 0 0 1-.069.136.166.166 0 0 1-.078.027c-.02.002-.066.003-.14.004h-.196v-.576zm.116.096v.133h.076a1 1 0 0 0 .085-.002.076.076 0 0 0 .047-.02.06.06 0 0 0 .017-.045.063.063 0 0 0-.015-.044.067.067 0 0 0-.044-.02 1.328 1.328 0 0 0-.099-.002h-.067zm0 .229v.154h.108a.52.52 0 0 0 .08-.004.072.072 0 0 0 .042-.023.071.071 0 0 0 .016-.049.076.076 0 0 0-.013-.043.071.071 0 0 0-.036-.027.396.396 0 0 0-.103-.008h-.094zm-1.568 2.19h1.345a.68.68 0 0 0-.262-.426h-.82a.688.688 0 0 0-.263.426zm.334-1.813h1.6v.213h-1.6v-.213zm0 .533h1.6v.213h-1.6V2.71z" style="fill:#fffffe"/><path id="_215562080" class="fil2" d="M.877 1.643a.107.107 0 0 0 0 .213h.67a.107.107 0 0 0 0-.214h-.67z"/></g><path class="fil2" d="M3.563 3.434a.978.978 0 0 1 1.387-.038.978.978 0 0 1 .103 1.31l.416.382c.032 0 .065.013.09.037l.408.39a.135.135 0 0 1 .004.19.135.135 0 0 1-.19.004l-.407-.39a.134.134 0 0 1-.041-.087l-.417-.381a.978.978 0 0 1-1.315-.031.978.978 0 0 1-.038-1.386zm.691-.108a.78.78 0 0 0-.76.803.78.78 0 0 0 .803.76.78.78 0 0 0 .76-.802.78.78 0 0 0-.803-.76z"/></g>
</svg>